<svg width="40" height="40" viewBox="0 0 40 40" fill="none" xmlns="http://www.w3.org/2000/svg">
<path d="M27.5 29.3845L26.4496 30.4349C25.9913 29.8648 25.2883 29.5 24.5 29.5C23.1193 29.5 22 30.6193 22 32C22 32.1712 22.0172 32.3384 22.05 32.4999L15.95 32.4998C15.9828 32.3383 16 32.1711 16 32C16 30.6193 14.8807 29.5 13.5 29.5C12.7116 29.5 12.0085 29.8649 11.5503 30.435L8.06507 26.9496C8.63512 26.4914 8.99998 25.7883 8.99998 25C8.99998 23.6193 7.88069 22.5 6.49998 22.5C6.32875 22.5 6.16155 22.5172 6 22.55L6.00014 16.45C6.16164 16.4828 6.3288 16.5 6.49998 16.5C7.88069 16.5 8.99998 15.3807 8.99998 14C8.99998 13.2116 8.63506 12.5085 8.06493 12.0503L11.5503 8.56503C12.0086 9.13512 12.7117 9.49999 13.5 9.49999C14.8807 9.49999 16 8.3807 16 6.99999C16 6.82876 15.9828 6.66155 15.95 6.5L22.05 6.50014C22.0172 6.66165 22 6.82881 22 6.99999C22 8.3807 23.1193 9.49999 24.5 9.49999C25.2883 9.49999 25.9915 9.13509 26.4497 8.56498L28.5 10.6154" stroke="black" stroke-width="1.5" stroke-linejoin="round"/>
<path d="M22.3178 24.5C21.3675 25.1318 20.2267 25.5 19 25.5C15.6863 25.5 13 22.8137 13 19.5C13 16.1863 15.6863 13.5 19 13.5C20.2267 13.5 21.3675 13.8682 22.3178 14.5" stroke="black" stroke-width="1.5"/>
<path d="M24.5 12.3755C22.9791 11.1997 21.0712 10.5 19 10.5C14.0294 10.5 10 14.5294 10 19.5C10 24.4706 14.0294 28.5 19 28.5C21.0094 28.5 22.865 27.8415 24.3627 26.7285" stroke="black" stroke-width="1.5"/>
<circle cx="30" cy="19.5" r="9" stroke="black" stroke-width="1.5"/>
<circle cx="30" cy="19.5" r="6" stroke="black" stroke-width="1.5"/>
<rect x="26.75" y="18.75" width="1.5" height="1.5" rx="0.2" fill="black"/>
<rect x="29.25" y="18.75" width="1.5" height="1.5" rx="0.2" fill="black"/>
<rect x="31.75" y="18.75" width="1.5" height="1.5" rx="0.2" fill="black"/>
<path d="M25 9.5V5C25 2.79086 23.2091 1 21 1H2C1.44772 1 1 1.44772 1 2V37.5C1 38.0523 1.44772 38.5 2 38.5H24C24.5523 38.5 25 38.0523 25 37.5V29.5" stroke="black" stroke-width="1.5" stroke-linejoin="round"/>
<path d="M32.5 28.5V31M27.5 28.5V31M27.5 31V37.5C27.5 38.0523 27.9477 38.5 28.5 38.5H31.5C32.0523 38.5 32.5 38.0523 32.5 37.5V31M27.5 31H32.5" stroke="black" stroke-width="1.5" stroke-linejoin="round"/>
<path d="M3.5 10H10M3.5 17.5H6M3.5 25H9M3.5 32.5H13" stroke="black" stroke-width="1.5" stroke-linecap="round" stroke-linejoin="round"/>
</svg>
