<svg width="40" height="40" viewBox="0 0 40 40" fill="none" xmlns="http://www.w3.org/2000/svg">
<rect x="3" y="15" width="15" height="23" stroke="black" stroke-width="1.5" stroke-linejoin="round"/>
<rect x="8" y="31" width="5" height="7" stroke="black" stroke-width="1.5" stroke-linejoin="round"/>
<path d="M29 23.2727V20H18V38H22.7143" stroke="black" stroke-width="1.5" stroke-linejoin="round"/>
<path d="M22 28L29 23L36 28V38H22V28Z" stroke="black" stroke-width="1.5" stroke-linejoin="round"/>
<path d="M26 31H32V38H26V31Z" stroke="black" stroke-width="1.5" stroke-linejoin="round"/>
<rect x="5" y="11" width="11" height="4" stroke="black" stroke-width="1.5" stroke-linejoin="round"/>
<path d="M10.5 11L10.5 7L10.5 3" stroke="black" stroke-width="1.5" stroke-linecap="round"/>
<path d="M8 19H13" stroke="black" stroke-width="1.5" stroke-linecap="round"/>
<path d="M8 23H13" stroke="black" stroke-width="1.5" stroke-linecap="round"/>
<path d="M8 27H13" stroke="black" stroke-width="1.5" stroke-linecap="round"/>
<path d="M28.5659 2.75971L21.4275 15.2519C21.237 15.5853 21.4777 16 21.8616 16H36.1384C36.5223 16 36.763 15.5853 36.5725 15.2519L29.4341 2.75971C29.2422 2.42381 28.7578 2.4238 28.5659 2.75971Z" stroke="black" stroke-width="1.5" stroke-linejoin="round"/>
<path d="M29 8V10.5M29 13V13.1" stroke="black" stroke-width="1.5" stroke-linecap="round" stroke-linejoin="round"/>
</svg>
