<svg width="41" height="40" viewBox="0 0 41 40" fill="none" xmlns="http://www.w3.org/2000/svg">
<path d="M22.2002 5V11L20.2002 8.5L18.2002 11V5H17.2002L20.2002 2L23.2002 5H22.2002Z" stroke="black" stroke-width="1.5" stroke-linejoin="round"/>
<path d="M22.2002 32.5V28.5H18.2002V32.5H17.2002L20.2002 35.5L23.2002 32.5H22.2002Z" stroke="black" stroke-width="1.5" stroke-linejoin="round"/>
<path d="M32.1447 9.15295L24.7978 16.4999L23.1409 12.4999L29.3163 6.32452L28.6091 5.61741H32.8518V9.86005L32.1447 9.15295Z" stroke="black" stroke-width="1.5" stroke-linejoin="round"/>
<path d="M8.02817 9.15295L15.3751 16.4999L17.032 12.4999L10.8566 6.32452L11.5637 5.61741H7.32106V9.86005L8.02817 9.15295Z" stroke="black" stroke-width="1.5" stroke-linejoin="round"/>
<path d="M5.85705 35.0661L12.4231 28.5H11.107C10.4189 28.5 9.93643 27.8212 10.1626 27.1713L11.2663 24L3.02862 32.2376L2.32152 31.5305V35.7732H6.56416L5.85705 35.0661Z" stroke="black" stroke-width="1.5" stroke-linejoin="round"/>
<path d="M34.5433 35.0661L27.9773 28.5H29.2934C29.9815 28.5 30.464 27.8212 30.2378 27.1713L29.1341 24L37.3718 32.2376L38.0789 31.5305V35.7732H33.8362L34.5433 35.0661Z" stroke="black" stroke-width="1.5" stroke-linejoin="round"/>
<path d="M6.2002 20.5L13.2002 20.5L15.2002 16.5L6.2002 16.5L6.2002 15.5L3.2002 18.5L6.2002 21.5L6.2002 20.5Z" stroke="black" stroke-width="1.5" stroke-linejoin="round"/>
<path d="M34.2002 20.5L27.2002 20.5L25.2002 16.5L34.2002 16.5L34.2002 15.5L37.2002 18.5L34.2002 21.5L34.2002 20.5Z" stroke="black" stroke-width="1.5" stroke-linejoin="round"/>
<path d="M30.4333 27.036L21.086 9.19113C20.7117 8.47648 19.6887 8.47647 19.3144 9.19113L9.96706 27.036C9.61829 27.7018 10.1012 28.5 10.8529 28.5H29.5475C30.2992 28.5 30.7821 27.7018 30.4333 27.036Z" stroke="black" stroke-width="1.5" stroke-linejoin="round"/>
<circle cx="20.2002" cy="24" r="1" stroke="black"/>
<path d="M20.7002 21H19.7002L18.7002 15H21.7002L20.7002 21Z" stroke="black" stroke-linejoin="round"/>
</svg>
