<svg width="40" height="40" viewBox="0 0 40 40" fill="none" xmlns="http://www.w3.org/2000/svg">
<path d="M7 9.75605C7.79113 9.75605 8.56448 9.52718 9.22228 9.09837C9.88008 8.66957 10.3928 8.06009 10.6955 7.34701C10.9983 6.63393 11.0775 5.84928 10.9231 5.09228C10.7688 4.33528 10.3878 3.63994 9.82843 3.09417C9.26902 2.5484 8.55629 2.17673 7.78036 2.02616C7.00444 1.87558 6.20017 1.95286 5.46927 2.24823C4.73836 2.54359 4.11365 3.04378 3.67412 3.68553C3.2346 4.32728 3 5.08178 3 5.85361" stroke="black" stroke-width="1.5" stroke-linecap="round" stroke-linejoin="round"/>
<path d="M28 9.75605C28.5253 9.75605 29.0454 9.65511 29.5307 9.45899C30.016 9.26288 30.457 8.97543 30.8284 8.61305C31.1999 8.25068 31.4945 7.82048 31.6955 7.34701C31.8965 6.87354 32 6.36609 32 5.85361C32 5.34113 31.8965 4.83368 31.6955 4.36021C31.4945 3.88675 31.1999 3.45654 30.8284 3.09417C30.457 2.73179 30.016 2.44434 29.5307 2.24823C29.0454 2.05211 28.5253 1.95117 28 1.95117" stroke="black" stroke-width="1.5" stroke-linecap="round" stroke-linejoin="round"/>
<path d="M3 5.85376V38.0489H28M28 9.7562V15.6099" stroke="black" stroke-width="1.5" stroke-linecap="round" stroke-linejoin="round"/>
<path d="M7 1.95117H28M28 9.75605H7" stroke="black" stroke-width="1.5" stroke-linecap="round" stroke-linejoin="round"/>
<ellipse cx="28" cy="24.3904" rx="9" ry="8.78049" stroke="black" stroke-width="1.5" stroke-linecap="round" stroke-linejoin="round"/>
<path d="M30 22.439C30 22.0531 29.8827 21.6758 29.6629 21.355C29.4432 21.0341 29.1308 20.784 28.7654 20.6363C28.3999 20.4886 27.9978 20.45 27.6098 20.5253C27.2219 20.6006 26.8655 20.7864 26.5858 21.0593C26.3061 21.3322 26.1156 21.6798 26.0384 22.0583C25.9613 22.4368 26.0009 22.8292 26.1522 23.1857C26.3036 23.5423 26.56 23.847 26.8889 24.0614C27.2178 24.2758 27.6044 24.3902 28 24.3902" stroke="black" stroke-width="1.5" stroke-linecap="round" stroke-linejoin="round"/>
<path d="M26 26.3415C26 26.7274 26.1173 27.1047 26.3371 27.4255C26.5568 27.7464 26.8692 27.9965 27.2346 28.1442C27.6001 28.2919 28.0022 28.3305 28.3902 28.2552C28.7781 28.1799 29.1345 27.9941 29.4142 27.7212C29.6939 27.4483 29.8844 27.1007 29.9616 26.7222C30.0387 26.3437 29.9991 25.9513 29.8478 25.5948C29.6964 25.2383 29.44 24.9335 29.1111 24.7191C28.7822 24.5047 28.3956 24.3903 28 24.3903" stroke="black" stroke-width="1.5" stroke-linecap="round" stroke-linejoin="round"/>
<path d="M28 20V19.0244M28 28.7805V29.7561" stroke="black" stroke-width="1.5" stroke-linecap="round" stroke-linejoin="round"/>
<path d="M8 17.561H14M14 21.9513H8M8 26.3415H14" stroke="black" stroke-width="1.5" stroke-linecap="round" stroke-linejoin="round"/>
<rect x="19" y="33.1707" width="18" height="4.87805" stroke="black" stroke-width="1.5" stroke-linecap="round" stroke-linejoin="round"/>
</svg>
